<svg width="34" height="46" viewBox="0 0 34 46" fill="none" xmlns="http://www.w3.org/2000/svg">
<path d="M27.2667 21.5172C29.7635 20.2687 31.3057 17.9922 31.012 14.2469C30.4979 9.17969 26.3854 7.41719 20.8042 6.97656V0H16.4713V6.90312C15.2963 6.90312 14.1948 6.90312 13.0932 6.97656V0H8.68697V7.05C7.14479 7.12344 5.30885 7.05 0.0213623 7.05V11.6766C3.39947 11.6031 5.16197 11.3828 5.6026 13.6594V33.0469C5.30885 34.8094 3.91354 34.5156 0.82916 34.5156L0.0213623 39.6562C7.87916 39.6562 8.68697 39.6562 8.68697 39.6562V45.5312H13.0198V39.5094C14.2682 39.5094 15.3698 39.5094 16.3979 39.5094V45.5312H20.7307V39.5094C28.001 39.0687 32.8479 37.3063 33.4354 30.4766C33.9495 24.9688 31.3057 22.5453 27.2667 21.5172ZM13.0198 11.8969C15.3698 11.8969 23.0807 11.0891 23.0807 16.2297C23.0807 21.0766 15.4432 20.4891 13.0198 20.4891V11.8969ZM13.0198 34.3687V24.9688C15.8838 24.9688 24.8432 24.1609 24.8432 29.7422C24.9167 34.9562 15.8838 34.3687 13.0198 34.3687Z" fill="#1E0036"/>
</svg>
