<svg width="46" height="46" viewBox="0 0 46 46" fill="none" xmlns="http://www.w3.org/2000/svg">
<path d="M45.4578 13.3656C45.3844 11.0156 44.9437 9.32656 44.4297 7.78438C43.9156 6.24219 43.1078 4.99375 41.8594 3.74531C40.6109 2.49687 39.3625 1.7625 37.8937 1.175C36.425 0.5875 34.8094 0.220313 32.3125 0.146875C29.7422 3.28291e-08 29.0078 0 22.7656 0C16.5234 0 15.8625 1.64146e-08 13.3656 0.0734375C10.8688 0.146875 9.32656 0.5875 7.78438 1.10156C6.24219 1.61563 4.99375 2.49687 3.74531 3.74531C2.49687 4.99375 1.68906 6.24219 1.175 7.78438C0.5875 9.25313 0.220313 10.8688 0.146875 13.3656C0.0734375 15.8625 0 16.5234 0 22.7656C0 29.0078 1.64146e-08 29.6687 0.0734375 32.1656C0.146875 34.6625 0.5875 36.2047 1.10156 37.7469C1.61563 39.2891 2.42344 40.5375 3.67188 41.7859C4.92031 43.0344 6.24219 43.8422 7.71094 44.3563C9.17969 44.8703 10.7953 45.3109 13.2922 45.3844C15.7891 45.5312 16.45 45.5312 22.6922 45.5312C28.9344 45.5312 29.5953 45.5312 32.0922 45.4578C34.5891 45.3844 36.1312 44.9437 37.6734 44.4297C39.2156 43.9156 40.4641 43.1078 41.7125 41.8594C42.9609 40.6109 43.7687 39.2891 44.2828 37.8203C44.7969 36.3516 45.2375 34.7359 45.3109 32.2391C45.3844 29.8891 45.3844 29.1547 45.3844 22.9125C45.3844 16.6703 45.5312 15.8625 45.4578 13.3656ZM41.3453 31.9453C41.2719 34.1484 40.8312 35.3234 40.5375 36.2047C40.0969 37.2328 39.5828 38.0406 38.775 38.775C37.9672 39.5828 37.2328 40.0234 36.2047 40.5375C35.3969 40.8312 34.2219 41.2719 31.9453 41.3453C29.5953 41.3453 28.8609 41.3453 22.8391 41.3453C16.8172 41.3453 16.0094 41.3453 13.6594 41.2719C11.4563 41.1984 10.2812 40.7578 9.4 40.4641C8.37187 40.0234 7.56406 39.5094 6.82969 38.7016C6.02187 37.8937 5.58125 37.1594 5.06719 36.1313C4.77344 35.3234 4.33281 34.1484 4.25938 31.8719C4.25938 29.5953 4.25938 28.8609 4.25938 22.7656C4.25938 16.6703 4.25938 15.9359 4.33281 13.5859C4.40625 11.3828 4.84688 10.2078 5.14062 9.32656C5.58125 8.29844 6.09531 7.49062 6.82969 6.75625C7.6375 5.94844 8.37187 5.50781 9.4 5.06719C10.2078 4.77344 11.3828 4.33281 13.6594 4.25938C16.0094 4.18594 16.7437 4.18594 22.8391 4.18594C28.9344 4.18594 29.6687 4.18594 32.0187 4.25938C34.2219 4.33281 35.3969 4.77344 36.2781 5.06719C37.3063 5.50781 38.1141 6.02187 38.8484 6.75625C39.6562 7.56406 40.0969 8.29844 40.6109 9.32656C40.9047 10.1344 41.3453 11.3094 41.4188 13.5859C41.4922 15.9359 41.4922 16.6703 41.4922 22.7656C41.4922 28.8609 41.4188 29.5953 41.3453 31.9453Z" fill="#1E0036"/>
<path d="M22.7668 11.0887C16.2308 11.0887 11.0902 16.3762 11.0902 22.7653C11.0902 29.3012 16.3777 34.4419 22.7668 34.4419C29.1558 34.4419 34.5168 29.3012 34.5168 22.7653C34.5168 16.2294 29.3027 11.0887 22.7668 11.0887ZM22.7668 30.4028C18.5074 30.4028 15.1293 26.9512 15.1293 22.7653C15.1293 18.5794 18.5808 15.1278 22.7668 15.1278C27.0261 15.1278 30.4043 18.5059 30.4043 22.7653C30.4043 27.0247 27.0261 30.4028 22.7668 30.4028Z" fill="#1E0036"/>
<path d="M35.0297 13.2923C36.5304 13.2923 37.7469 12.0757 37.7469 10.5751C37.7469 9.0744 36.5304 7.85791 35.0297 7.85791C33.529 7.85791 32.3125 9.0744 32.3125 10.5751C32.3125 12.0757 33.529 13.2923 35.0297 13.2923Z" fill="#1E0036"/>
</svg>
