<svg width="46" height="41" viewBox="0 0 46 41" fill="none" xmlns="http://www.w3.org/2000/svg">
<path d="M45.5312 10.1909C45.3109 14.6706 42.2266 20.7659 36.2047 28.4769C30.0359 36.555 24.7484 40.594 20.4891 40.594C17.9187 40.594 15.6422 38.244 13.7328 33.2503C12.4844 28.844 11.3828 24.2909 10.0609 19.7378C8.73906 14.8909 7.27031 12.394 5.58125 12.394C5.2875 12.394 4.03906 13.1284 1.98281 14.5972L0 11.6597C2.27656 9.67686 4.47969 7.69405 6.75625 5.6378C9.76719 3.06749 11.8969 1.67218 13.5125 1.59874C17.0375 1.30499 19.1672 3.80187 20.0484 8.86905C20.8562 14.4503 21.5172 17.9753 21.8844 19.2972C22.9125 23.9237 24.0875 26.2003 25.1891 26.2003C26.1437 26.2003 27.5391 24.7315 29.5219 21.7206C31.5047 18.7097 32.3859 16.3597 32.6063 14.8175C32.9 12.2472 31.7984 10.8519 29.5219 10.8519C28.4938 10.8519 27.3188 11.0722 26.2172 11.6597C28.4203 4.31593 32.6063 0.717491 38.9219 0.864366C43.5484 1.08468 45.7516 4.16905 45.5312 10.1909Z" fill="#1E0036"/>
</svg>
